HIERARCHY
ROOT ui
{
	 OFFSET 0 0 0
	 CHANNELS 3 XPosition YPosition Z Position
	 EndSite
	 {
	 OFFSET 0 -1 0
	 }
}
ROOT li
{
	 OFFSET 0 0 0
	 CHANNELS 3 XPosition YPosition Z Position
	 EndSite
	 {
	 OFFSET 0 -1 0
	 }
}
ROOT ul
{
	 OFFSET 0 0 0
	 CHANNELS 3 XPosition YPosition Z Position
	 EndSite
	 {
	 OFFSET 0 -1 0
	 }
}
ROOT ll
{
	 OFFSET 0 0 0
	 CHANNELS 3 XPosition YPosition Z Position
	 EndSite
	 {
	 OFFSET 0 -1 0
	 }
}
ROOT tt
{
	 OFFSET 0 0 0
	 CHANNELS 3 XPosition YPosition Z Position
	 EndSite
	 {
	 OFFSET 0 -1 0
	 }
}
ROOT tb
{
	 OFFSET 0 0 0
	 CHANNELS 3 XPosition YPosition Z Position
	 EndSite
	 {
	 OFFSET 0 -1 0
	 }
}
ROOT td
{
	 OFFSET 0 0 0
	 CHANNELS 3 XPosition YPosition Z Position
	 EndSite
	 {
	 OFFSET 0 -1 0
	 }
}
ROOT v
{
	 OFFSET 0 0 0
	 CHANNELS 3 XPosition YPosition Z Position
	 EndSite
	 {
	 OFFSET 0 -1 0
	 }
}
ROOT bn
{
	 OFFSET 0 0 0
	 CHANNELS 3 XPosition YPosition Z Position
	 EndSite
	 {
	 OFFSET 0 -1 0
	 }
}
MOTION
Frames: 32
Frame Time: 0.002
0.004552604198455811	7.154080271720886E-4	0		0.475822265625	-2.328522705078125	0		-1.0357344970703124	-0.038255172729492186	0		-0.8826736450195313	-2.249340087890625	0		1.503443359375	-0.4644247741699219	0		3.275322509765625	-0.044389640808105466	0		4.6426611328125	0.147729248046875	0		5.55557470703125	0.13320436096191407	0		-0.33569464111328123	5.88414892578125	0		
-0.03691734313964844	0.011579130172729492	0		0.42724789428710935	-2.3166337890625	0		-1.098205810546875	-0.027198776245117188	0		-0.8862316284179688	-2.235692626953125	0		1.5189090576171875	-0.4600205383300781	0		3.301692138671875	-0.05714460754394531	0		4.6231708984375	0.15323110961914063	0		5.5750078125	0.12838780212402343	0		-0.31890496826171877	5.89163427734375	0		
0.00948367691040039	0.0028626880645751954	0		0.4716017761230469	-2.3163583984375	0		-1.036772705078125	-0.030968509674072265	0		-0.89985888671875	-2.23295849609375	0		1.50733740234375	-0.4614124450683594	0		3.27836572265625	-0.02553838348388672	0		4.64269580078125	0.16049078369140626	0		5.57053857421875	0.137758056640625	0		-0.31916629028320315	5.8922529296875	0		
-0.04004965591430664	0.006827357769012451	0		0.45188046264648435	-2.324621337890625	0		-1.0363363037109374	-0.03130148315429687	0		-0.8146065673828125	-2.245883544921875	0		1.5257193603515624	-0.4669841003417969	0		3.263706298828125	-0.03996200561523437	0		4.6271064453125	0.15402142333984375	0		5.565044921875	0.1461685333251953	0		-0.2994841613769531	5.8887568359375	0		
0.006303031921386718	-8.42756986618042E-4	0		0.46618936157226565	-2.324090576171875	0		-1.038018798828125	-0.04359555816650391	0		-0.9012293701171875	-2.23559765625	0		1.50510888671875	-0.466256591796875	0		3.281106201171875	-0.040572845458984375	0		4.639521484375	0.15339532470703124	0		5.56228662109375	0.12159827423095704	0		-0.33287008666992185	5.88265283203125	0		
-0.04633528518676758	2.0374299585819243E-4	0		0.4254566040039062	-2.323146484375	0		-1.1046097412109375	-0.0354091796875	0		-0.8790578002929688	-2.249037841796875	0		1.5054434814453126	-0.46664080810546876	0		3.293345947265625	-0.057112388610839844	0		4.63283154296875	0.1449412841796875	0		5.56769384765625	0.12801461791992189	0		-0.33227828979492186	5.88234326171875	0		
0.014001639366149902	0.005492575168609619	0		0.45466415405273436	-2.32365771484375	0		-1.0312603759765624	-0.028171545028686525	0		-0.875832763671875	-2.247317138671875	0		1.50875	-0.4630106201171875	0		3.2887666015625	-0.039494155883789066	0		4.63718115234375	0.1504534912109375	0		5.5661142578125	0.14452565002441406	0		-0.31668231201171876	5.89295849609375	0		
-0.03876192855834961	0.005607462882995605	0		0.44386016845703125	-2.317854736328125	0		-1.0350545654296874	-0.03236553955078125	0		-0.8106571655273438	-2.24500341796875	0		1.5059405517578126	-0.46730078125	0		3.27497216796875	-0.0437691535949707	0		4.63248291015625	0.15807440185546875	0		5.5663544921875	0.1440718994140625	0		-0.29629052734375	5.8855703125	0		
0.007360652923583984	-0.0019416970014572144	0		0.4778657531738281	-2.331334228515625	0		-1.042931884765625	-0.039499980926513675	0		-0.8885401000976563	-2.2426494140625	0		1.5060986328125	-0.4675738525390625	0		3.31614990234375	-0.043389720916748045	0		4.64556640625	0.1436153869628906	0		5.562482421875	0.13669667053222656	0		-0.3299625549316406	5.88059619140625	0		
-0.045516197204589846	-7.555670142173767E-4	0		0.47589794921875	-2.33352490234375	0		-1.0428182373046875	-0.0396601448059082	0		-0.8155427856445312	-2.250333251953125	0		1.50317138671875	-0.471787353515625	0		3.261229248046875	-0.04828626251220703	0		4.64568994140625	0.14329421997070313	0		5.56260107421875	0.13634275817871094	0		-0.2966263427734375	5.88718017578125	0		
0.00753922176361084	-0.002289956092834473	0		0.4529502258300781	-2.326530517578125	0		-1.103732421875	-0.03635382843017578	0		-0.8884869995117187	-2.242947509765625	0		1.5122081298828125	-0.47404873657226565	0		3.27829150390625	-0.0486517219543457	0		4.6378046875	0.14907559204101561	0		5.572654296875	0.13396598815917968	0		-0.32846176147460937	5.879259765625	0		
0.018634927749633788	0.00750729513168335	0		0.45694671630859374	-2.322693603515625	0		-1.024689453125	-0.03401675033569336	0		-0.7985767211914062	-2.251694091796875	0		1.5212996826171874	-0.463273681640625	0		3.30422802734375	-0.061040786743164065	0		4.64277880859375	0.14080877685546875	0		5.5776103515625	0.12367168426513672	0		-0.3132305603027344	5.88803662109375	0		
0.01461034393310547	0.004445538997650146	0		0.45286318969726563	-2.32676513671875	0		-1.03468603515625	-0.03301229858398438	0		-0.8105865478515625	-2.245680419921875	0		1.5272427978515626	-0.46944064331054686	0		3.29935302734375	-0.04316888427734375	0		4.65083935546875	0.14856219482421876	0		5.56674658203125	0.14253619384765626	0		-0.3281673583984375	5.8790615234375	0		
-0.045452037811279294	-0.0011800400018692017	0		0.4777579956054688	-2.332012451171875	0		-1.0427578125	-0.0399912223815918	0		-0.8236170043945312	-2.240628173828125	0		1.5062200927734375	-0.4683785705566406	0		3.2612890625	-0.049020412445068356	0		4.64083935546875	0.1504849853515625	0		5.5635556640625	0.11838632202148437	0		-0.328067626953125	5.87901025390625	0		
0.007511301994323731	-0.002589911937713623	0		0.44868621826171873	-2.33183984375	0		-1.0427864990234375	-0.03999897766113281	0		-0.8157603149414062	-2.25069775390625	0		1.52415380859375	-0.47256500244140626	0		3.278259521484375	-0.04923321533203125	0		4.64575927734375	0.14233660888671876	0		5.56265283203125	0.13525923156738281	0		-0.3279833984375	5.87898876953125	0		
0.007488711833953858	-0.0025893239974975587	0		0.4506363525390625	-2.329861572265625	0		-1.1118370361328125	-0.04347948455810547	0		-0.8788214721679688	-2.250225830078125	0		1.491116455078125	-0.4733524169921875	0		3.306119384765625	-0.0654936752319336	0		4.64574169921875	0.14225772094726563	0		5.55857470703125	0.12718952941894532	0		-0.3279006652832031	5.87899560546875	0		
0.018557819366455078	0.007357852935791016	0		0.42664532470703126	-2.32266748046875	0		-1.103790283203125	-0.03649155044555664	0		-0.8847753295898437	-2.238140380859375	0		1.532089599609375	-0.47564785766601564	0		3.27229052734375	-0.04127569198608398	0		4.637787109375	0.14826812744140624	0		5.57754443359375	0.12298529815673828	0		-0.31373239135742187	5.88892626953125	0		
0.007513735771179199	-0.0025095510482788085	0		0.479584228515625	-2.33000732421875	0		-1.1137476806640625	-0.034348663330078126	0		-0.8888190307617188	-2.24304443359375	0		1.4861697998046874	-0.46728509521484374	0		3.289142822265625	-0.06539839935302734	0		4.65081982421875	0.14815530395507812	0		5.566712890625	0.1420285186767578	0		-0.3136102294921875	5.88898388671875	0		
0.007582694053649902	-0.002433950901031494	0		0.45061883544921877	-2.3297275390625	0		-1.0427176513671874	-0.039773891448974606	0		-0.8237637329101563	-2.240429443359375	0		1.5241942138671876	-0.47250885009765625	0		3.31636328125	-0.0445698356628418	0		4.63385009765625	0.14228799438476564	0		5.5627333984375	0.13504957580566407	0		-0.32752490234375	5.8791669921875	0		
0.007698983192443848	-0.0023371241092681886	0		0.475671875	-2.333819580078125	0		-1.117592529296875	-0.038113906860351564	0		-0.900655517578125	-2.236758056640625	0		1.483312255859375	-0.47113412475585936	0		3.278443603515625	-0.04924254989624023	0		4.64597021484375	0.14223373413085938	0		5.5628515625	0.13506681823730468	0		-0.3273243713378906	5.8792685546875	0		
0.007867149829864502	-0.0022205529212951662	0		0.459779541015625	-2.337592041015625	0		-1.036470947265625	-0.04457499313354492	0		-0.802652099609375	-2.25534619140625	0		1.5124512939453125	-0.47424984741210935	0		3.278611083984375	-0.049170364379882814	0		4.639083984375	0.13434152221679688	0		5.5689482421875	0.12506433868408204	0		-0.32707638549804685	5.8793896484375	0		
0.02412579917907715	0.002797295093536377	0		0.48406689453125	-2.324638916015625	0		-1.099159423828125	-0.03196457672119141	0		-0.8713758544921875	-2.24369482421875	0		1.4987266845703124	-0.4660312194824219	0		3.312656005859375	-0.073325439453125	0		4.64335400390625	0.14039089965820312	0		5.57323095703125	0.13309925842285156	0		-0.3107207946777344	5.88741162109375	0		
0.012387447357177735	0.0010386539697647096	0		0.4822934875488281	-2.327476318359375	0		-1.037907470703125	-0.03524624252319336	0		-0.8101353149414062	-2.244979248046875	0		1.527974365234375	-0.46910842895507815	0		3.277211181640625	-0.03494762420654297	0		4.65169189453125	0.14843295288085936	0		5.5784345703125	0.12315050506591797	0		-0.2914052734375	5.88342919921875	0		
0.008690546035766602	-0.0017614450454711914	0		0.44956494140625	-2.331068115234375	0		-1.1106396484375	-0.04252724075317383	0		-0.887817626953125	-2.24222607421875	0		1.50427294921875	-0.4717777099609375	0		3.275388671875	-0.05479713439941406	0		4.6469765625	0.14259246826171876	0		5.5679013671875	0.14234136962890626	0		-0.32604534912109373	5.8798603515625	0		
0.009056681632995606	-0.0015749130249023437	0		0.4768929443359375	-2.333084716796875	0		-1.0352833251953124	-0.043882312774658205	0		-0.81452685546875	-2.249568603515625	0		1.5256339111328125	-0.47176043701171877	0		3.279798583984375	-0.04867204666137695	0		4.64734521484375	0.14273577880859376	0		5.56015869140625	0.12753311157226563	0		-0.32562191772460936	5.88005029296875	0		
0.009453267097473144	-0.0013731060028076172	0		0.45028472900390626	-2.33068798828125	0		-1.109877685546875	-0.0421182746887207	0		-0.8771480712890625	-2.248894775390625	0		1.508056396484375	-0.46743914794921876	0		3.293150146484375	-0.054594383239746094	0		4.64774462890625	0.14289901733398438	0		5.57460009765625	0.133583251953125	0		-0.3251742248535156	5.8802548828125	0		
0.016918691635131836	0.005791518211364746	0		0.45471792602539063	-2.32550439453125	0		-1.030444091796875	-0.039476707458496095	0		-0.7987753295898438	-2.25224755859375	0		1.508466796875	-0.46723394775390625	0		3.2916669921875	-0.04038823699951172	0		4.6581455078125	0.14100833129882812	0		5.57994091796875	0.12372119140625	0		-0.30964996337890627	5.88936328125	0		
0.010282564163208007	-9.260950088500977E-4	0		0.44617822265625	-2.31721044921875	0		-1.1090489501953125	-0.0416558723449707	0		-0.8862976684570313	-2.241362060546875	0		1.5088792724609374	-0.46701275634765627	0		3.286964111328125	-0.05614073944091797	0		4.64062255859375	0.1493439636230469	0		5.569498046875	0.14299784851074218	0		-0.27415460205078124	5.8953369140625	0		
0.010680307388305664	-6.826059818267822E-4	0		0.47845303344726564	-2.332205322265625	0		-1.033660888671875	-0.04296155548095703	0		-0.8208903198242188	-2.238594970703125	0		1.501289794921875	-0.46471734619140626	0		3.319456787109375	-0.04314995956420899	0		4.6369775390625	0.14359591674804686	0		5.5717705078125	0.12620030975341798	0		-0.32284548950195313	5.8799443359375	0		
-0.03698916625976562	-0.0040721287727355955	0		0.45181942749023435	-2.329751953125	0		-1.108292724609375	-0.04114791488647461	0		-0.849590087890625	-2.2451220703125	0		1.521646484375	-0.4646151123046875	0		3.281779541015625	-0.04762471771240234	0		4.65427734375	0.1357105712890625	0		5.5662041015625	0.13648072814941406	0		-0.323459228515625	5.8812080078125	0		
0.011337881088256835	-1.6116900742053986E-4	0		0.45412814331054685	-2.32750146484375	0		-1.0270333251953125	-0.04647869491577149	0		-0.885265380859375	-2.240587890625	0		1.49186376953125	-0.4751297607421875	0		3.276137451171875	-0.03932111358642578	0		4.64662158203125	0.142026611328125	0		5.5724287109375	0.1266913299560547	0		-0.32215576171875	5.8804677734375	0		
-0.05735834121704102	0.011625577926635742	0		0.44236221313476565	-2.325136474609375	0		-1.089729736328125	-0.03473565673828125	0		-0.8680542602539062	-2.2414365234375	0		1.5131795654296876	-0.4620101013183594	0		3.308208984375	-0.05928315353393555	0		4.63889404296875	0.14935906982421876	0		5.58163427734375	0.12489746856689453	0		-0.30587255859375	5.88862548828125	0		
